<mxfile host="app.diagrams.net" modified="2024-06-28T06:48:25.108Z" agent="Mozilla/5.0 (Windows NT 10.0; Win64; x64) AppleWebKit/537.36 (KHTML, like Gecko) Chrome/126.0.0.0 Safari/537.36" etag="IxUwfx9jk18jSQ5M2Bk4" version="24.6.3" type="github">
  <diagram id="C5RBs43oDa-KdzZeNtuy" name="Page-1">
    <mxGraphModel dx="2514" dy="958" grid="1" gridSize="10" guides="1" tooltips="1" connect="1" arrows="1" fold="1" page="1" pageScale="1" pageWidth="827" pageHeight="1169" math="0" shadow="0">
      <root>
        <mxCell id="WIyWlLk6GJQsqaUBKTNV-0" />
        <mxCell id="WIyWlLk6GJQsqaUBKTNV-1" parent="WIyWlLk6GJQsqaUBKTNV-0" />
        <mxCell id="WIyWlLk6GJQsqaUBKTNV-2" value="" style="rounded=0;html=1;jettySize=auto;orthogonalLoop=1;fontSize=11;endArrow=block;endFill=0;endSize=8;strokeWidth=1;shadow=0;labelBackgroundColor=none;edgeStyle=orthogonalEdgeStyle;" parent="WIyWlLk6GJQsqaUBKTNV-1" source="WIyWlLk6GJQsqaUBKTNV-3" target="WIyWlLk6GJQsqaUBKTNV-6" edge="1">
          <mxGeometry relative="1" as="geometry" />
        </mxCell>
        <mxCell id="MPoosqfBRv5EeIqGnUtg-5" value="" style="edgeStyle=orthogonalEdgeStyle;rounded=0;orthogonalLoop=1;jettySize=auto;html=1;" edge="1" parent="WIyWlLk6GJQsqaUBKTNV-1" source="WIyWlLk6GJQsqaUBKTNV-3" target="MPoosqfBRv5EeIqGnUtg-4">
          <mxGeometry relative="1" as="geometry" />
        </mxCell>
        <mxCell id="MPoosqfBRv5EeIqGnUtg-23" value="" style="edgeStyle=orthogonalEdgeStyle;rounded=0;orthogonalLoop=1;jettySize=auto;html=1;" edge="1" parent="WIyWlLk6GJQsqaUBKTNV-1" source="WIyWlLk6GJQsqaUBKTNV-3" target="MPoosqfBRv5EeIqGnUtg-22">
          <mxGeometry relative="1" as="geometry" />
        </mxCell>
        <mxCell id="WIyWlLk6GJQsqaUBKTNV-3" value="List quotation" style="rounded=1;whiteSpace=wrap;html=1;fontSize=12;glass=0;strokeWidth=1;shadow=0;" parent="WIyWlLk6GJQsqaUBKTNV-1" vertex="1">
          <mxGeometry x="260" y="220" width="120" height="40" as="geometry" />
        </mxCell>
        <mxCell id="WIyWlLk6GJQsqaUBKTNV-5" value="" style="edgeStyle=orthogonalEdgeStyle;rounded=0;html=1;jettySize=auto;orthogonalLoop=1;fontSize=11;endArrow=block;endFill=0;endSize=8;strokeWidth=1;shadow=0;labelBackgroundColor=none;entryX=0.459;entryY=-0.05;entryDx=0;entryDy=0;entryPerimeter=0;" parent="WIyWlLk6GJQsqaUBKTNV-1" target="WIyWlLk6GJQsqaUBKTNV-7" edge="1">
          <mxGeometry x="0.5556" y="180" relative="1" as="geometry">
            <mxPoint as="offset" />
            <mxPoint x="-180" y="410" as="sourcePoint" />
            <mxPoint x="-180" y="500" as="targetPoint" />
          </mxGeometry>
        </mxCell>
        <mxCell id="MPoosqfBRv5EeIqGnUtg-9" value="Text" style="edgeLabel;html=1;align=center;verticalAlign=middle;resizable=0;points=[];" vertex="1" connectable="0" parent="WIyWlLk6GJQsqaUBKTNV-5">
          <mxGeometry x="-0.2" y="1" relative="1" as="geometry">
            <mxPoint as="offset" />
          </mxGeometry>
        </mxCell>
        <mxCell id="MPoosqfBRv5EeIqGnUtg-10" value="&lt;span style=&quot;background-color: rgb(251, 251, 251);&quot;&gt;Survey chưa quay thưởng&lt;/span&gt;" style="edgeLabel;html=1;align=center;verticalAlign=middle;resizable=0;points=[];" vertex="1" connectable="0" parent="WIyWlLk6GJQsqaUBKTNV-5">
          <mxGeometry x="-0.1556" y="3" relative="1" as="geometry">
            <mxPoint as="offset" />
          </mxGeometry>
        </mxCell>
        <mxCell id="MPoosqfBRv5EeIqGnUtg-1" style="edgeStyle=orthogonalEdgeStyle;rounded=0;orthogonalLoop=1;jettySize=auto;html=1;" edge="1" parent="WIyWlLk6GJQsqaUBKTNV-1" source="WIyWlLk6GJQsqaUBKTNV-6" target="MPoosqfBRv5EeIqGnUtg-0">
          <mxGeometry relative="1" as="geometry" />
        </mxCell>
        <mxCell id="MPoosqfBRv5EeIqGnUtg-11" value="&lt;span style=&quot;font-size: 12px; background-color: rgb(251, 251, 251);&quot;&gt;Survey đã quay thưởng&lt;/span&gt;" style="edgeLabel;html=1;align=center;verticalAlign=middle;resizable=0;points=[];" vertex="1" connectable="0" parent="MPoosqfBRv5EeIqGnUtg-1">
          <mxGeometry x="-0.1053" y="1" relative="1" as="geometry">
            <mxPoint as="offset" />
          </mxGeometry>
        </mxCell>
        <mxCell id="WIyWlLk6GJQsqaUBKTNV-6" value="Btn Thiết lập" style="rhombus;whiteSpace=wrap;html=1;shadow=0;fontFamily=Helvetica;fontSize=12;align=center;strokeWidth=1;spacing=6;spacingTop=-4;" parent="WIyWlLk6GJQsqaUBKTNV-1" vertex="1">
          <mxGeometry x="-230" y="319" width="100" height="80" as="geometry" />
        </mxCell>
        <mxCell id="MPoosqfBRv5EeIqGnUtg-33" style="edgeStyle=orthogonalEdgeStyle;rounded=0;orthogonalLoop=1;jettySize=auto;html=1;exitX=1;exitY=0.5;exitDx=0;exitDy=0;entryX=0.5;entryY=0;entryDx=0;entryDy=0;" edge="1" parent="WIyWlLk6GJQsqaUBKTNV-1" source="WIyWlLk6GJQsqaUBKTNV-7" target="MPoosqfBRv5EeIqGnUtg-35">
          <mxGeometry relative="1" as="geometry">
            <mxPoint x="-40" y="580" as="targetPoint" />
          </mxGeometry>
        </mxCell>
        <mxCell id="MPoosqfBRv5EeIqGnUtg-34" style="edgeStyle=orthogonalEdgeStyle;rounded=0;orthogonalLoop=1;jettySize=auto;html=1;entryX=0.5;entryY=0;entryDx=0;entryDy=0;" edge="1" parent="WIyWlLk6GJQsqaUBKTNV-1" source="WIyWlLk6GJQsqaUBKTNV-7" target="MPoosqfBRv5EeIqGnUtg-30">
          <mxGeometry relative="1" as="geometry" />
        </mxCell>
        <mxCell id="WIyWlLk6GJQsqaUBKTNV-7" value="Chuyển đến màn hình Thiết lập" style="rounded=1;whiteSpace=wrap;html=1;fontSize=12;glass=0;strokeWidth=1;shadow=0;" parent="WIyWlLk6GJQsqaUBKTNV-1" vertex="1">
          <mxGeometry x="-260" y="480" width="170" height="40" as="geometry" />
        </mxCell>
        <mxCell id="WIyWlLk6GJQsqaUBKTNV-8" value="No" style="rounded=0;html=1;jettySize=auto;orthogonalLoop=1;fontSize=11;endArrow=block;endFill=0;endSize=8;strokeWidth=1;shadow=0;labelBackgroundColor=none;edgeStyle=orthogonalEdgeStyle;" parent="WIyWlLk6GJQsqaUBKTNV-1" target="WIyWlLk6GJQsqaUBKTNV-11" edge="1">
          <mxGeometry x="0.3333" y="20" relative="1" as="geometry">
            <mxPoint as="offset" />
            <mxPoint x="220" y="370" as="sourcePoint" />
          </mxGeometry>
        </mxCell>
        <mxCell id="WIyWlLk6GJQsqaUBKTNV-9" value="Yes" style="edgeStyle=orthogonalEdgeStyle;rounded=0;html=1;jettySize=auto;orthogonalLoop=1;fontSize=11;endArrow=block;endFill=0;endSize=8;strokeWidth=1;shadow=0;labelBackgroundColor=none;" parent="WIyWlLk6GJQsqaUBKTNV-1" target="WIyWlLk6GJQsqaUBKTNV-12" edge="1">
          <mxGeometry y="10" relative="1" as="geometry">
            <mxPoint as="offset" />
            <mxPoint x="270" y="330" as="sourcePoint" />
          </mxGeometry>
        </mxCell>
        <mxCell id="MPoosqfBRv5EeIqGnUtg-0" value="Hiển thị ERR MSG" style="rounded=1;whiteSpace=wrap;html=1;fontSize=12;glass=0;strokeWidth=1;shadow=0;" vertex="1" parent="WIyWlLk6GJQsqaUBKTNV-1">
          <mxGeometry x="40" y="340" width="120" height="40" as="geometry" />
        </mxCell>
        <mxCell id="MPoosqfBRv5EeIqGnUtg-7" value="" style="edgeStyle=orthogonalEdgeStyle;rounded=0;orthogonalLoop=1;jettySize=auto;html=1;" edge="1" parent="WIyWlLk6GJQsqaUBKTNV-1" source="MPoosqfBRv5EeIqGnUtg-4" target="MPoosqfBRv5EeIqGnUtg-6">
          <mxGeometry relative="1" as="geometry" />
        </mxCell>
        <mxCell id="MPoosqfBRv5EeIqGnUtg-8" value="Survey chưa quay thưởng" style="edgeLabel;html=1;align=center;verticalAlign=middle;resizable=0;points=[];" vertex="1" connectable="0" parent="MPoosqfBRv5EeIqGnUtg-7">
          <mxGeometry x="-0.1" y="1" relative="1" as="geometry">
            <mxPoint as="offset" />
          </mxGeometry>
        </mxCell>
        <mxCell id="MPoosqfBRv5EeIqGnUtg-20" style="edgeStyle=orthogonalEdgeStyle;rounded=0;orthogonalLoop=1;jettySize=auto;html=1;" edge="1" parent="WIyWlLk6GJQsqaUBKTNV-1" source="MPoosqfBRv5EeIqGnUtg-4" target="MPoosqfBRv5EeIqGnUtg-19">
          <mxGeometry relative="1" as="geometry" />
        </mxCell>
        <mxCell id="MPoosqfBRv5EeIqGnUtg-4" value="btn Quay trúng thưởng" style="rhombus;whiteSpace=wrap;html=1;rounded=1;glass=0;strokeWidth=1;shadow=0;" vertex="1" parent="WIyWlLk6GJQsqaUBKTNV-1">
          <mxGeometry x="260" y="320" width="120" height="80" as="geometry" />
        </mxCell>
        <mxCell id="MPoosqfBRv5EeIqGnUtg-6" value="Thực hiện quay thưởng và chuyển đến màn hình KQ" style="whiteSpace=wrap;html=1;rounded=1;glass=0;strokeWidth=1;shadow=0;" vertex="1" parent="WIyWlLk6GJQsqaUBKTNV-1">
          <mxGeometry x="235" y="480" width="170" height="40" as="geometry" />
        </mxCell>
        <mxCell id="MPoosqfBRv5EeIqGnUtg-18" value="&lt;span style=&quot;font-size: 12px; background-color: rgb(251, 251, 251);&quot;&gt;Survey đã quay thưởng&lt;/span&gt;" style="edgeLabel;html=1;align=center;verticalAlign=middle;resizable=0;points=[];" vertex="1" connectable="0" parent="WIyWlLk6GJQsqaUBKTNV-1">
          <mxGeometry x="460" y="359" as="geometry" />
        </mxCell>
        <mxCell id="MPoosqfBRv5EeIqGnUtg-19" value="Hiển thị ERR MSG" style="rounded=1;whiteSpace=wrap;html=1;fontSize=12;glass=0;strokeWidth=1;shadow=0;" vertex="1" parent="WIyWlLk6GJQsqaUBKTNV-1">
          <mxGeometry x="550" y="340" width="120" height="40" as="geometry" />
        </mxCell>
        <mxCell id="MPoosqfBRv5EeIqGnUtg-25" value="" style="edgeStyle=orthogonalEdgeStyle;rounded=0;orthogonalLoop=1;jettySize=auto;html=1;" edge="1" parent="WIyWlLk6GJQsqaUBKTNV-1" source="MPoosqfBRv5EeIqGnUtg-22" target="MPoosqfBRv5EeIqGnUtg-24">
          <mxGeometry relative="1" as="geometry" />
        </mxCell>
        <mxCell id="MPoosqfBRv5EeIqGnUtg-26" value="Survey chưa quay thưởng" style="edgeLabel;html=1;align=center;verticalAlign=middle;resizable=0;points=[];" vertex="1" connectable="0" parent="MPoosqfBRv5EeIqGnUtg-25">
          <mxGeometry x="-0.2288" y="3" relative="1" as="geometry">
            <mxPoint x="-3" y="9" as="offset" />
          </mxGeometry>
        </mxCell>
        <mxCell id="MPoosqfBRv5EeIqGnUtg-28" value="" style="edgeStyle=orthogonalEdgeStyle;rounded=0;orthogonalLoop=1;jettySize=auto;html=1;" edge="1" parent="WIyWlLk6GJQsqaUBKTNV-1" source="MPoosqfBRv5EeIqGnUtg-22" target="MPoosqfBRv5EeIqGnUtg-27">
          <mxGeometry relative="1" as="geometry" />
        </mxCell>
        <mxCell id="MPoosqfBRv5EeIqGnUtg-29" value="&lt;span style=&quot;font-size: 12px; background-color: rgb(251, 251, 251);&quot;&gt;Survey đã quay thưởng&lt;/span&gt;" style="edgeLabel;html=1;align=center;verticalAlign=middle;resizable=0;points=[];" vertex="1" connectable="0" parent="MPoosqfBRv5EeIqGnUtg-28">
          <mxGeometry x="-0.2889" y="-3" relative="1" as="geometry">
            <mxPoint x="22" y="-3" as="offset" />
          </mxGeometry>
        </mxCell>
        <mxCell id="MPoosqfBRv5EeIqGnUtg-22" value="btn Xem kết quả trúng thưởng" style="rhombus;whiteSpace=wrap;html=1;rounded=1;glass=0;strokeWidth=1;shadow=0;" vertex="1" parent="WIyWlLk6GJQsqaUBKTNV-1">
          <mxGeometry x="760" y="319" width="150" height="80" as="geometry" />
        </mxCell>
        <mxCell id="MPoosqfBRv5EeIqGnUtg-24" value="Hiển thị ERR MSG" style="rounded=1;whiteSpace=wrap;html=1;glass=0;strokeWidth=1;shadow=0;" vertex="1" parent="WIyWlLk6GJQsqaUBKTNV-1">
          <mxGeometry x="775" y="480" width="120" height="40" as="geometry" />
        </mxCell>
        <mxCell id="MPoosqfBRv5EeIqGnUtg-27" value="&lt;div&gt;&lt;br&gt;&lt;/div&gt;&lt;div&gt;Chuyển đến màn hình Kết quả trúng thưởng&lt;/div&gt;" style="rounded=1;whiteSpace=wrap;html=1;glass=0;strokeWidth=1;shadow=0;" vertex="1" parent="WIyWlLk6GJQsqaUBKTNV-1">
          <mxGeometry x="1100" y="330" width="120" height="60" as="geometry" />
        </mxCell>
        <mxCell id="MPoosqfBRv5EeIqGnUtg-39" value="" style="edgeStyle=orthogonalEdgeStyle;rounded=0;orthogonalLoop=1;jettySize=auto;html=1;entryX=0.5;entryY=0;entryDx=0;entryDy=0;" edge="1" parent="WIyWlLk6GJQsqaUBKTNV-1" source="MPoosqfBRv5EeIqGnUtg-30" target="MPoosqfBRv5EeIqGnUtg-40">
          <mxGeometry relative="1" as="geometry">
            <mxPoint x="-440" y="750" as="targetPoint" />
          </mxGeometry>
        </mxCell>
        <mxCell id="MPoosqfBRv5EeIqGnUtg-30" value="Survey chưa thiết lập" style="ellipse;whiteSpace=wrap;html=1;" vertex="1" parent="WIyWlLk6GJQsqaUBKTNV-1">
          <mxGeometry x="-500" y="590" width="120" height="90" as="geometry" />
        </mxCell>
        <mxCell id="MPoosqfBRv5EeIqGnUtg-42" value="" style="edgeStyle=orthogonalEdgeStyle;rounded=0;orthogonalLoop=1;jettySize=auto;html=1;" edge="1" parent="WIyWlLk6GJQsqaUBKTNV-1" source="MPoosqfBRv5EeIqGnUtg-35" target="MPoosqfBRv5EeIqGnUtg-41">
          <mxGeometry relative="1" as="geometry" />
        </mxCell>
        <mxCell id="MPoosqfBRv5EeIqGnUtg-35" value="Survey đã thiết lập" style="ellipse;whiteSpace=wrap;html=1;" vertex="1" parent="WIyWlLk6GJQsqaUBKTNV-1">
          <mxGeometry x="70" y="590" width="120" height="90" as="geometry" />
        </mxCell>
        <mxCell id="MPoosqfBRv5EeIqGnUtg-44" value="" style="edgeStyle=orthogonalEdgeStyle;rounded=0;orthogonalLoop=1;jettySize=auto;html=1;" edge="1" parent="WIyWlLk6GJQsqaUBKTNV-1" source="MPoosqfBRv5EeIqGnUtg-40" target="MPoosqfBRv5EeIqGnUtg-43">
          <mxGeometry relative="1" as="geometry" />
        </mxCell>
        <mxCell id="MPoosqfBRv5EeIqGnUtg-50" value="" style="edgeStyle=orthogonalEdgeStyle;rounded=0;orthogonalLoop=1;jettySize=auto;html=1;" edge="1" parent="WIyWlLk6GJQsqaUBKTNV-1" source="MPoosqfBRv5EeIqGnUtg-40" target="MPoosqfBRv5EeIqGnUtg-49">
          <mxGeometry relative="1" as="geometry" />
        </mxCell>
        <mxCell id="MPoosqfBRv5EeIqGnUtg-51" value="Import&lt;div&gt;success&lt;/div&gt;" style="edgeLabel;html=1;align=center;verticalAlign=middle;resizable=0;points=[];" vertex="1" connectable="0" parent="MPoosqfBRv5EeIqGnUtg-50">
          <mxGeometry x="-0.3699" y="-4" relative="1" as="geometry">
            <mxPoint x="12" y="-4" as="offset" />
          </mxGeometry>
        </mxCell>
        <mxCell id="MPoosqfBRv5EeIqGnUtg-40" value="Hiển thị màn hình với table trống" style="rounded=1;whiteSpace=wrap;html=1;" vertex="1" parent="WIyWlLk6GJQsqaUBKTNV-1">
          <mxGeometry x="-500" y="740" width="120" height="60" as="geometry" />
        </mxCell>
        <mxCell id="MPoosqfBRv5EeIqGnUtg-56" style="edgeStyle=orthogonalEdgeStyle;rounded=0;orthogonalLoop=1;jettySize=auto;html=1;" edge="1" parent="WIyWlLk6GJQsqaUBKTNV-1" source="MPoosqfBRv5EeIqGnUtg-41" target="MPoosqfBRv5EeIqGnUtg-54">
          <mxGeometry relative="1" as="geometry" />
        </mxCell>
        <mxCell id="MPoosqfBRv5EeIqGnUtg-59" style="edgeStyle=orthogonalEdgeStyle;rounded=0;orthogonalLoop=1;jettySize=auto;html=1;" edge="1" parent="WIyWlLk6GJQsqaUBKTNV-1" source="MPoosqfBRv5EeIqGnUtg-41" target="MPoosqfBRv5EeIqGnUtg-58">
          <mxGeometry relative="1" as="geometry" />
        </mxCell>
        <mxCell id="MPoosqfBRv5EeIqGnUtg-63" value="" style="edgeStyle=orthogonalEdgeStyle;rounded=0;orthogonalLoop=1;jettySize=auto;html=1;" edge="1" parent="WIyWlLk6GJQsqaUBKTNV-1" source="MPoosqfBRv5EeIqGnUtg-41" target="MPoosqfBRv5EeIqGnUtg-62">
          <mxGeometry relative="1" as="geometry" />
        </mxCell>
        <mxCell id="MPoosqfBRv5EeIqGnUtg-41" value="Hiển thị màn hình với table đã có data" style="rounded=1;whiteSpace=wrap;html=1;" vertex="1" parent="WIyWlLk6GJQsqaUBKTNV-1">
          <mxGeometry x="70" y="735" width="120" height="60" as="geometry" />
        </mxCell>
        <mxCell id="MPoosqfBRv5EeIqGnUtg-46" value="" style="edgeStyle=orthogonalEdgeStyle;rounded=0;orthogonalLoop=1;jettySize=auto;html=1;" edge="1" parent="WIyWlLk6GJQsqaUBKTNV-1" source="MPoosqfBRv5EeIqGnUtg-43" target="MPoosqfBRv5EeIqGnUtg-45">
          <mxGeometry relative="1" as="geometry" />
        </mxCell>
        <mxCell id="MPoosqfBRv5EeIqGnUtg-43" value="Export Data" style="rhombus;whiteSpace=wrap;html=1;rounded=1;" vertex="1" parent="WIyWlLk6GJQsqaUBKTNV-1">
          <mxGeometry x="-150" y="840" width="80" height="80" as="geometry" />
        </mxCell>
        <mxCell id="MPoosqfBRv5EeIqGnUtg-45" value="Export File" style="rounded=1;whiteSpace=wrap;html=1;" vertex="1" parent="WIyWlLk6GJQsqaUBKTNV-1">
          <mxGeometry x="-170" y="960" width="120" height="40" as="geometry" />
        </mxCell>
        <mxCell id="MPoosqfBRv5EeIqGnUtg-48" style="edgeStyle=orthogonalEdgeStyle;rounded=0;orthogonalLoop=1;jettySize=auto;html=1;entryX=0;entryY=0.5;entryDx=0;entryDy=0;" edge="1" parent="WIyWlLk6GJQsqaUBKTNV-1" source="MPoosqfBRv5EeIqGnUtg-47" target="MPoosqfBRv5EeIqGnUtg-40">
          <mxGeometry relative="1" as="geometry" />
        </mxCell>
        <mxCell id="MPoosqfBRv5EeIqGnUtg-47" value="Imprort" style="rhombus;whiteSpace=wrap;html=1;" vertex="1" parent="WIyWlLk6GJQsqaUBKTNV-1">
          <mxGeometry x="-690" y="735" width="80" height="70" as="geometry" />
        </mxCell>
        <mxCell id="MPoosqfBRv5EeIqGnUtg-53" value="" style="edgeStyle=orthogonalEdgeStyle;rounded=0;orthogonalLoop=1;jettySize=auto;html=1;" edge="1" parent="WIyWlLk6GJQsqaUBKTNV-1" source="MPoosqfBRv5EeIqGnUtg-49" target="MPoosqfBRv5EeIqGnUtg-52">
          <mxGeometry relative="1" as="geometry" />
        </mxCell>
        <mxCell id="MPoosqfBRv5EeIqGnUtg-49" value="Hiển thị màn hình thiết lập có data" style="whiteSpace=wrap;html=1;rounded=1;" vertex="1" parent="WIyWlLk6GJQsqaUBKTNV-1">
          <mxGeometry x="-290" y="740" width="120" height="60" as="geometry" />
        </mxCell>
        <mxCell id="MPoosqfBRv5EeIqGnUtg-52" value="Search/Fillter" style="rhombus;whiteSpace=wrap;html=1;rounded=1;" vertex="1" parent="WIyWlLk6GJQsqaUBKTNV-1">
          <mxGeometry x="-275" y="840" width="90" height="80" as="geometry" />
        </mxCell>
        <mxCell id="MPoosqfBRv5EeIqGnUtg-57" style="edgeStyle=orthogonalEdgeStyle;rounded=0;orthogonalLoop=1;jettySize=auto;html=1;" edge="1" parent="WIyWlLk6GJQsqaUBKTNV-1" source="MPoosqfBRv5EeIqGnUtg-54" target="MPoosqfBRv5EeIqGnUtg-55">
          <mxGeometry relative="1" as="geometry" />
        </mxCell>
        <mxCell id="MPoosqfBRv5EeIqGnUtg-54" value="Export Data" style="rhombus;whiteSpace=wrap;html=1;rounded=1;" vertex="1" parent="WIyWlLk6GJQsqaUBKTNV-1">
          <mxGeometry x="160" y="840" width="80" height="80" as="geometry" />
        </mxCell>
        <mxCell id="MPoosqfBRv5EeIqGnUtg-55" value="Export File" style="rounded=1;whiteSpace=wrap;html=1;" vertex="1" parent="WIyWlLk6GJQsqaUBKTNV-1">
          <mxGeometry x="140" y="960" width="120" height="40" as="geometry" />
        </mxCell>
        <mxCell id="MPoosqfBRv5EeIqGnUtg-58" value="Search/Fillter" style="rhombus;whiteSpace=wrap;html=1;rounded=1;" vertex="1" parent="WIyWlLk6GJQsqaUBKTNV-1">
          <mxGeometry x="20" y="840" width="90" height="80" as="geometry" />
        </mxCell>
        <mxCell id="MPoosqfBRv5EeIqGnUtg-61" style="edgeStyle=orthogonalEdgeStyle;rounded=0;orthogonalLoop=1;jettySize=auto;html=1;" edge="1" parent="WIyWlLk6GJQsqaUBKTNV-1" source="MPoosqfBRv5EeIqGnUtg-60" target="MPoosqfBRv5EeIqGnUtg-41">
          <mxGeometry relative="1" as="geometry" />
        </mxCell>
        <mxCell id="MPoosqfBRv5EeIqGnUtg-60" value="Imprort" style="rhombus;whiteSpace=wrap;html=1;" vertex="1" parent="WIyWlLk6GJQsqaUBKTNV-1">
          <mxGeometry x="-60" y="725" width="80" height="80" as="geometry" />
        </mxCell>
        <mxCell id="MPoosqfBRv5EeIqGnUtg-70" style="edgeStyle=orthogonalEdgeStyle;rounded=0;orthogonalLoop=1;jettySize=auto;html=1;entryX=0.5;entryY=0;entryDx=0;entryDy=0;" edge="1" parent="WIyWlLk6GJQsqaUBKTNV-1" source="MPoosqfBRv5EeIqGnUtg-62" target="MPoosqfBRv5EeIqGnUtg-69">
          <mxGeometry relative="1" as="geometry" />
        </mxCell>
        <mxCell id="MPoosqfBRv5EeIqGnUtg-71" style="edgeStyle=orthogonalEdgeStyle;rounded=0;orthogonalLoop=1;jettySize=auto;html=1;" edge="1" parent="WIyWlLk6GJQsqaUBKTNV-1" source="MPoosqfBRv5EeIqGnUtg-62" target="MPoosqfBRv5EeIqGnUtg-67">
          <mxGeometry relative="1" as="geometry" />
        </mxCell>
        <mxCell id="MPoosqfBRv5EeIqGnUtg-62" value="Update data theo File đã import" style="whiteSpace=wrap;html=1;rounded=1;" vertex="1" parent="WIyWlLk6GJQsqaUBKTNV-1">
          <mxGeometry x="340" y="735" width="120" height="60" as="geometry" />
        </mxCell>
        <mxCell id="MPoosqfBRv5EeIqGnUtg-65" value="Import&lt;div&gt;success&lt;/div&gt;" style="edgeLabel;html=1;align=center;verticalAlign=middle;resizable=0;points=[];" vertex="1" connectable="0" parent="WIyWlLk6GJQsqaUBKTNV-1">
          <mxGeometry x="-300.00470588235316" y="780" as="geometry">
            <mxPoint x="545" y="-16" as="offset" />
          </mxGeometry>
        </mxCell>
        <mxCell id="MPoosqfBRv5EeIqGnUtg-66" style="edgeStyle=orthogonalEdgeStyle;rounded=0;orthogonalLoop=1;jettySize=auto;html=1;" edge="1" parent="WIyWlLk6GJQsqaUBKTNV-1" source="MPoosqfBRv5EeIqGnUtg-67" target="MPoosqfBRv5EeIqGnUtg-68">
          <mxGeometry relative="1" as="geometry" />
        </mxCell>
        <mxCell id="MPoosqfBRv5EeIqGnUtg-67" value="Export Data" style="rhombus;whiteSpace=wrap;html=1;rounded=1;" vertex="1" parent="WIyWlLk6GJQsqaUBKTNV-1">
          <mxGeometry x="420" y="840" width="80" height="80" as="geometry" />
        </mxCell>
        <mxCell id="MPoosqfBRv5EeIqGnUtg-68" value="Export File" style="rounded=1;whiteSpace=wrap;html=1;" vertex="1" parent="WIyWlLk6GJQsqaUBKTNV-1">
          <mxGeometry x="400" y="960" width="120" height="40" as="geometry" />
        </mxCell>
        <mxCell id="MPoosqfBRv5EeIqGnUtg-69" value="Search/Fillter" style="rhombus;whiteSpace=wrap;html=1;rounded=1;" vertex="1" parent="WIyWlLk6GJQsqaUBKTNV-1">
          <mxGeometry x="280" y="840" width="90" height="80" as="geometry" />
        </mxCell>
      </root>
    </mxGraphModel>
  </diagram>
</mxfile>
